# xmcd
#
# Track frame offsets:
#	150
#	11075
#	23835
#	35992
#	47392
#	62707
#	74180
#	83442
#	95642
#	108352
#	119305
#	132082
#	145170
#	155830
#	166905
#	176917
#	193850
#	210902
#	223550
#	239985
#	251850
#	266462
#
# Disc length: 3702 seconds
#
# Revision: 1
# Processed by: cddbd v1.5.1PL0 Copyright (c) Steve Scherf et al.
# Submitted via: audiograbber 1.83.01
#
DISCID=4c0e7416
DTITLE=Various Artist - Great Country Hits [CD1]
DYEAR=1900
DGENRE=General
TTITLE0=Leroy Van Dyke - Walk On By
TTITLE1=Hank Snow - I've Been Everywhere
TTITLE2=Tammy Wynette - Stand By Your Man
TTITLE3=Roger Miller - King Of The Road
TTITLE4=Jim Reeves - Blue Side Of Lonesome
TTITLE5=Sonny James - A World Of Our Own
TTITLE6=Marty Robbins - Ruby Ann
TTITLE7=Johnny Cash - Understand Your Man
TTITLE8=Patsy Cline - I Fall To Pieces
TTITLE9=Hank Locklin - Please Help Me I'm Falling
TTITLE10=Eddy Arnold - Then You Can Tell Me Goodbye
TTITLE11=David Houston and Tammy Wynette - My Elusive Dreams
TTITLE12=Ferlin Husky - Wings Of A Dove
TTITLE13=Faron Young - Hello Walls
TTITLE14=Anne Murray - Snowbird
TTITLE15=Glen Campbell - Both Sides Now
TTITLE16=Dolly Parton - Down From Dover
TTITLE17=Jim Reeves - I Can't Stop Loving You
TTITLE18=Don Williams - That's The Thing About Love
TTITLE19=Johnny Cash - I Walk The Line
TTITLE20=George Jones - Almost Persuaded
TTITLE21=Brenda Lee - Can't Help Falling In Love
EXTD=Country Magic\nReaders Digist
EXTT0=
EXTT1=
EXTT2=
EXTT3=
EXTT4=
EXTT5=
EXTT6=
EXTT7=
EXTT8=
EXTT9=
EXTT10=
EXTT11=
EXTT12=
EXTT13=
EXTT14=
EXTT15=
EXTT16=
EXTT17=
EXTT18=
EXTT19=
EXTT20=
EXTT21=
PLAYORDER=
